<svg width="30" height="30" viewBox="0 0 30 30" fill="none" xmlns="http://www.w3.org/2000/svg">
<path opacity="0.35" d="M7.5 23.75V3.75C7.5 3.06 8.06 2.5 8.75 2.5H21.25C23.3212 2.5 25 4.17875 25 6.25V21.25C25 23.3212 23.3212 25 21.25 25H8.75C8.06 25 7.5 24.44 7.5 23.75Z" fill="#18BF7E"/>
<path d="M18.125 8.75C17.6425 8.75 14.8575 8.75 14.375 8.75C13.34 8.75 12.5 9.59 12.5 10.625C12.5 11.66 13.34 12.5 14.375 12.5C14.8575 12.5 17.6425 12.5 18.125 12.5C19.16 12.5 20 11.66 20 10.625C20 9.59 19.16 8.75 18.125 8.75Z" fill="#18BF7E"/>
<path d="M8.75 25C8.06 25 7.5 24.44 7.5 23.75V5C6.11875 5 5 6.11875 5 7.5V23.75C5 25.8212 6.67875 27.5 8.75 27.5H18.75C20.1313 27.5 21.25 26.3813 21.25 25H8.75Z" fill="#18BF7E"/>
</svg>
