<svg width="30" height="30" viewBox="0 0 30 30" fill="none" xmlns="http://www.w3.org/2000/svg">
<path opacity="0.35" d="M25 5C25 4.66848 24.8683 4.35054 24.6339 4.11612C24.3995 3.8817 24.0815 3.75 23.75 3.75C22.0924 3.75 20.5027 4.40848 19.3306 5.58058C18.1585 6.75269 17.5 8.3424 17.5 10V14.4475C17.4994 14.9728 17.6642 15.485 17.9712 15.9114C18.2781 16.3377 18.7116 16.6565 19.21 16.8225L20 17.0862V18.75H25V5Z" fill="#3C81E8"/>
<path d="M22.5 26.25C23.163 26.25 23.7989 25.9866 24.2678 25.5178C24.7366 25.0489 25 24.413 25 23.75V18.75H20V23.75C20 24.413 20.2634 25.0489 20.7322 25.5178C21.2011 25.9866 21.837 26.25 22.5 26.25Z" fill="#3C81E8"/>
<path d="M8.75 26.25C9.41304 26.25 10.0489 25.9866 10.5178 25.5178C10.9866 25.0489 11.25 24.413 11.25 23.75V18.75H6.25V23.75C6.25 24.413 6.51339 25.0489 6.98223 25.5178C7.45107 25.9866 8.08696 26.25 8.75 26.25Z" fill="#3C81E8"/>
<path opacity="0.35" d="M6.25 14.77V18.75H11.25V14.77C11.9796 14.514 12.6119 14.0379 13.0597 13.4075C13.5074 12.7771 13.7486 12.0233 13.75 11.25V5C13.75 4.66848 13.6183 4.35054 13.3839 4.11612C13.1495 3.8817 12.8315 3.75 12.5 3.75C12.1685 3.75 11.8505 3.8817 11.6161 4.11612C11.3817 4.35054 11.25 4.66848 11.25 5V10C11.25 10.1658 11.1842 10.3247 11.0669 10.4419C10.9497 10.5592 10.7908 10.625 10.625 10.625C10.4592 10.625 10.3003 10.5592 10.1831 10.4419C10.0658 10.3247 10 10.1658 10 10V5C10 4.66848 9.8683 4.35054 9.63388 4.11612C9.39946 3.8817 9.08152 3.75 8.75 3.75C8.41848 3.75 8.10054 3.8817 7.86612 4.11612C7.6317 4.35054 7.5 4.66848 7.5 5V10C7.5 10.1658 7.43415 10.3247 7.31694 10.4419C7.19973 10.5592 7.04076 10.625 6.875 10.625C6.70924 10.625 6.55027 10.5592 6.43306 10.4419C6.31585 10.3247 6.25 10.1658 6.25 10V5C6.25 4.66848 6.1183 4.35054 5.88388 4.11612C5.64946 3.8817 5.33152 3.75 5 3.75C4.66848 3.75 4.35054 3.8817 4.11612 4.11612C3.8817 4.35054 3.75 4.66848 3.75 5V11.25C3.75138 12.0233 3.99257 12.7771 4.44033 13.4075C4.88808 14.0379 5.52035 14.514 6.25 14.77Z" fill="#3C81E8"/>
</svg>
