<svg width="30" height="30" viewBox="0 0 30 30" fill="none" xmlns="http://www.w3.org/2000/svg">
<path opacity="0.35" d="M21.25 2.5H8.75003C6.67896 2.5 5.00003 4.17893 5.00003 6.25V23.75C5.00003 25.8211 6.67896 27.5 8.75003 27.5H21.25C23.3211 27.5 25 25.8211 25 23.75V6.25C25 4.17893 23.3211 2.5 21.25 2.5Z" fill="#B1B8C1"/>
<path d="M16.25 7.5C16.9404 7.5 17.5 6.94036 17.5 6.25C17.5 5.55964 16.9404 5 16.25 5C15.5596 5 15 5.55964 15 6.25C15 6.94036 15.5596 7.5 16.25 7.5Z" fill="#B1B8C1"/>
<path d="M21.25 7.5C21.9404 7.5 22.5 6.94036 22.5 6.25C22.5 5.55964 21.9404 5 21.25 5C20.5597 5 20 5.55964 20 6.25C20 6.94036 20.5597 7.5 21.25 7.5Z" fill="#B1B8C1"/>
<path d="M15 11.25C13.7639 11.25 12.5555 11.6166 11.5277 12.3033C10.4999 12.9901 9.69883 13.9662 9.22579 15.1082C8.75274 16.2503 8.62897 17.5069 8.87013 18.7193C9.11128 19.9317 9.70654 21.0453 10.5806 21.9194C11.4547 22.7935 12.5683 23.3888 13.7807 23.6299C14.9931 23.8711 16.2498 23.7473 17.3918 23.2742C18.5338 22.8012 19.51 22.0001 20.1967 20.9723C20.8835 19.9445 21.25 18.7361 21.25 17.5C21.25 15.8424 20.5916 14.2527 19.4195 13.0806C18.2473 11.9085 16.6576 11.25 15 11.25ZM11.25 17.5C11.25 16.5054 11.6451 15.5516 12.3484 14.8483C13.0516 14.1451 14.0055 13.75 15 13.75C15.9946 13.75 16.9484 14.1451 17.6517 14.8483C18.3549 15.5516 18.75 16.5054 18.75 17.5H11.25Z" fill="#B1B8C1"/>
</svg>
