<svg width="45" height="44" viewBox="0 0 45 44" fill="none" xmlns="http://www.w3.org/2000/svg">
<g clip-path="url(#clip0_438_1634)">
<path d="M7.41011 11.2767C8.55319 11.2767 9.64946 11.7393 10.4577 12.5627C11.266 13.386 11.7201 14.5028 11.7201 15.6672V27.708C11.7201 28.2841 11.6086 28.8545 11.3919 29.3866C11.1751 29.9187 10.8575 30.402 10.4571 30.8089C10.0568 31.2158 9.58158 31.5382 9.05873 31.7578C8.53587 31.9773 7.97563 32.0896 7.41011 32.0883C6.84505 32.0896 6.28531 31.9772 5.76301 31.7576C5.24072 31.5379 4.76617 31.2153 4.36662 30.8083C3.96706 30.4013 3.65036 29.9179 3.43473 29.3858C3.21911 28.8538 3.1088 28.2836 3.11012 27.708V15.6672C3.1088 15.0911 3.21905 14.5205 3.43455 13.9878C3.65006 13.4552 3.96659 12.9711 4.36601 12.5633C4.76543 12.1555 5.2399 11.8319 5.76225 11.6111C6.2846 11.3904 6.84458 11.2767 7.41011 11.2767Z" fill="#E83C77"/>
<path d="M7.41006 0.0101792C8.54795 0.015555 9.63758 0.479095 10.4413 1.29969C11.2449 2.12028 11.6974 3.23133 11.7001 4.39047C11.6974 5.55314 11.2422 6.66726 10.4342 7.48844C9.62618 8.30961 8.53143 8.7708 7.39008 8.7708C6.24964 8.7708 5.15592 8.30928 4.34952 7.48782C3.54311 6.66635 3.09009 5.5522 3.09009 4.39047C3.09008 3.81352 3.20194 3.24228 3.41928 2.70951C3.63663 2.17673 3.95515 1.69293 4.35657 1.28592C4.75798 0.878901 5.23438 0.556678 5.75839 0.337748C6.2824 0.118819 6.8437 0.00749574 7.41006 0.0101792Z" fill="#E83C77"/>
<path d="M4.30002 34.7776H40.7C41.8431 34.7776 42.9394 35.2401 43.7477 36.0635C44.5559 36.8869 45.01 38.0036 45.01 39.1681C45.0074 40.3307 44.5521 41.4449 43.7441 42.266C42.9361 43.0872 41.8414 43.5484 40.7 43.5484H4.30002C3.1604 43.5457 2.06819 43.0833 1.26236 42.2624C0.456525 41.4416 0.00264107 40.329 0 39.1681C-3.07209e-06 38.0054 0.45273 36.8902 1.25885 36.0671C2.06497 35.244 3.15867 34.7803 4.30002 34.7776Z" fill="#E83C77"/>
<path d="M41.89 18.6112V27.7283C41.8367 28.8549 41.3599 29.9173 40.5584 30.6953C39.7569 31.4734 38.6922 31.9074 37.585 31.9074C36.4779 31.9074 35.4132 31.4734 34.6117 30.6953C33.8102 29.9173 33.3333 28.8549 33.28 27.7283V16.798C33.28 15.6362 32.827 14.5221 32.0206 13.7006C31.2142 12.8792 30.1205 12.4177 28.98 12.4177C27.8396 12.4177 26.7459 12.8792 25.9395 13.7006C25.1331 14.5221 24.68 15.6362 24.68 16.798V27.7283C24.6267 28.8549 24.1499 29.9173 23.3484 30.6953C22.5469 31.4734 21.4822 31.9074 20.375 31.9074C19.2679 31.9074 18.2032 31.4734 17.4017 30.6953C16.6002 29.9173 16.1233 28.8549 16.07 27.7283V18.6112V17.0119C16.0342 15.2861 16.3325 13.57 16.9479 11.9617C17.5633 10.3534 18.4837 8.88434 19.6566 7.63847C20.8295 6.39261 22.2318 5.39434 23.7835 4.7007C25.3352 4.00707 27.0059 3.63166 28.7 3.59592H29.24C30.935 3.62903 32.607 4.00217 34.1604 4.69399C35.7137 5.38581 37.1179 6.38274 38.2928 7.62778C39.4677 8.87283 40.3901 10.3416 41.0073 11.95C41.6245 13.5585 41.9245 15.2751 41.89 17.0017V18.601V18.6112Z" fill="#E83C77"/>
</g>
<defs>
<clipPath id="clip0_438_1634">
<rect width="45" height="43.5484" fill="white"/>
</clipPath>
</defs>
</svg>
