<svg width="24" height="24" viewBox="0 0 24 24" fill="none" xmlns="http://www.w3.org/2000/svg">
<path d="M12.1087 3C7.03713 3 2.86957 7.20416 2.86957 12.433V13.9017C2.38913 13.9017 2 14.3252 2 14.8481V17.6874C2 18.2104 2.38913 18.6339 2.86957 18.6339H3.30435V18.8705C3.30435 20.0446 4.18217 21 5.26087 21C6.33957 21 7.21739 20.0446 7.21739 18.8705V13.6651C7.21739 12.491 6.33957 11.5356 5.26087 11.5356C4.87018 11.5356 4.50776 11.6637 4.20194 11.8794C4.48334 7.72917 7.88218 4.41967 12.1087 4.41967C16.4008 4.41967 19.839 7.83286 20.0256 12.0735C19.6808 11.7428 19.2337 11.5356 18.7391 11.5356C17.6604 11.5356 16.7826 12.491 16.7826 13.6651V18.8705C16.7826 20.0446 17.6604 21 18.7391 21C19.8178 21 20.6957 20.0446 20.6957 18.8705V18.6339H21.1304C21.6109 18.6339 22 18.2104 22 17.6874V14.8481C22 14.4075 21.7222 14.0405 21.3478 13.9349V12.433C21.3478 7.20416 17.1803 3 12.1087 3Z" fill="#505966"/>
</svg>
