<svg width="161" height="24" viewBox="0 0 161 24" fill="none" xmlns="http://www.w3.org/2000/svg">
<g clip-path="url(#clip0_694_1109)">
<path d="M71.5937 2.78113H69.8925V14.8621H71.5937V2.78113Z" fill="white"/>
<path d="M94.2812 2.75159H92.58V14.8472H94.2812V2.75159Z" fill="white"/>
<path d="M38.8132 4.87059H37.4408V2.76636H35.7396V11.2716H37.4408V6.62166H38.8132V4.87059Z" fill="white"/>
<path d="M34.7389 2.75163H32.3086V1.79517H30.6074V2.75163H28.1914V4.50271H28.9062C28.6038 4.92555 28.4029 5.41608 28.3201 5.93417C28.2373 6.45225 28.2748 6.98317 28.4296 7.48346C28.5844 7.98376 28.8521 8.43921 29.2107 8.81256C29.5694 9.1859 30.0089 9.46653 30.4932 9.63147C30.9774 9.7964 31.4928 9.84096 31.997 9.76151C32.5012 9.68205 32.98 9.48083 33.3942 9.17431C33.8083 8.8678 34.1461 8.46469 34.3798 7.998C34.6136 7.5313 34.7366 7.01427 34.7389 6.48922C34.7401 5.77026 34.5087 5.07134 34.0813 4.50271H34.7389V2.75163ZM31.4509 7.91657C31.1681 7.91657 30.8917 7.83026 30.6566 7.66858C30.4215 7.50689 30.2383 7.27707 30.1301 7.00819C30.0219 6.73931 29.9936 6.44344 30.0487 6.158C30.1039 5.87256 30.2401 5.61037 30.44 5.40457C30.6399 5.19878 30.8946 5.05864 31.172 5.00186C31.4493 4.94508 31.7367 4.97422 31.9979 5.0856C32.2592 5.19697 32.4824 5.38557 32.6395 5.62756C32.7966 5.86954 32.8804 6.15404 32.8804 6.44508C32.8804 6.83534 32.7298 7.20962 32.4617 7.48558C32.1936 7.76153 31.83 7.91657 31.4509 7.91657Z" fill="white"/>
<path d="M150.278 4.87059H148.92V2.76636H147.204V9.60879H148.92V6.62166H150.278V4.87059Z" fill="white"/>
<path d="M146.204 2.75163H143.788V1.79517H142.072V2.75163H139.656V4.50271H140.385C140.026 4.997 139.808 5.58438 139.755 6.19913C139.702 6.81388 139.816 7.43173 140.084 7.98355C140.353 8.53537 140.765 8.99938 141.275 9.32366C141.786 9.64794 142.373 9.81968 142.973 9.81968C143.572 9.81968 144.16 9.64794 144.67 9.32366C145.181 8.99938 145.593 8.53537 145.862 7.98355C146.13 7.43173 146.244 6.81388 146.191 6.19913C146.138 5.58438 145.919 4.997 145.56 4.50271H146.204V2.75163ZM142.959 7.91656C142.676 7.91656 142.399 7.83026 142.164 7.66857C141.929 7.50688 141.746 7.27707 141.638 7.00819C141.53 6.73931 141.501 6.44344 141.556 6.158C141.612 5.87256 141.748 5.61037 141.948 5.40457C142.148 5.19878 142.402 5.05864 142.68 5.00186C142.957 4.94508 143.244 4.97422 143.506 5.08559C143.767 5.19697 143.99 5.38557 144.147 5.62756C144.304 5.86954 144.388 6.15404 144.388 6.44507C144.388 6.83534 144.238 7.20962 143.969 7.48557C143.701 7.76153 143.338 7.91656 142.959 7.91656Z" fill="white"/>
<path d="M30.3072 13.0962V10.8595H28.606V14.1556L29.2779 14.8472H29.7783H30.3072H37.6553V13.0962H30.3072Z" fill="white"/>
<path d="M49.7782 9.04963V7.28384H48.8203V3.42854L48.1484 2.73694H47.6338H47.1048H40.1856V4.50273H47.1048V7.28384H39.4423V9.04963H43.7882V10.4181H40.1856V12.1692H47.1048V14.8914H48.8203V11.1097L48.1484 10.4181H47.6338H47.1048H45.4894V9.04963H49.7782Z" fill="white"/>
<path d="M147.219 12.3752V14.9356H148.934V11.301L148.262 10.6094H147.748H147.219H140.114V12.3752H147.219Z" fill="white"/>
<path d="M58.6416 2.78102V9.285H52.8661V4.50266H57.4693V2.75159H51.1506V4.17893V10.3445L51.8225 11.0361H52.3228H52.8661H58.6416V14.8472H60.3571V2.78102H58.6416Z" fill="white"/>
<path d="M126.576 10.9184V3.42854L125.904 2.73694H125.403H124.874H117.941V4.50273H124.874V10.9184H121.944V7.46042H120.228V10.9184H117.583V12.6695H127.548V10.9184H126.576Z" fill="white"/>
<path d="M160.056 10.889V3.42854L159.385 2.73694H158.884H158.355H151.522V4.50273H158.355V10.889H156.969V7.90187H155.267V10.889H154.024V7.90187H152.308V10.889H151.079V12.6401H161V10.889H160.056Z" fill="white"/>
<path d="M103.488 2.78108V9.28507H97.6979V4.50273H102.015V2.73694H95.9967V4.179V10.3445L96.6686 11.0361H97.169H97.6979H103.488V14.8473H105.189V2.78108H103.488Z" fill="white"/>
<path d="M138.67 8.34326H128.32V10.0943H131.179C130.79 10.6521 130.58 11.3208 130.578 12.0073C130.632 12.8262 130.986 13.5936 131.569 14.1541C132.151 14.7146 132.919 15.0264 133.716 15.0264C134.514 15.0264 135.281 14.7146 135.864 14.1541C136.447 13.5936 136.801 12.8262 136.854 12.0073C136.853 11.3208 136.643 10.6521 136.254 10.0943H138.67V8.34326ZM133.681 13.3905C133.415 13.3905 133.155 13.3093 132.934 13.1574C132.713 13.0054 132.541 12.7893 132.439 12.5366C132.337 12.2839 132.311 12.0057 132.363 11.7374C132.414 11.4691 132.542 11.2226 132.73 11.0292C132.918 10.8358 133.158 10.704 133.418 10.6506C133.679 10.5973 133.949 10.6247 134.195 10.7294C134.44 10.8341 134.65 11.0113 134.798 11.2388C134.946 11.4663 135.024 11.7337 135.024 12.0073C135.024 12.3741 134.883 12.7259 134.631 12.9853C134.379 13.2447 134.037 13.3905 133.681 13.3905Z" fill="white"/>
<path d="M130.378 7.44571H130.907H137.841V5.94479H130.907V4.38501H137.812V2.73694H129.235V2.97238H129.206V6.75411L129.878 7.44571H130.378Z" fill="white"/>
<path d="M89.8066 2.75159H84.8602V10.3003L85.5321 10.9919H91.0503V2.75159H89.8066ZM89.3491 9.285H86.49V4.50266H89.3491V9.285Z" fill="white"/>
<path d="M79.199 4.92944H75.8681V6.23907H79.199V4.92944Z" fill="white"/>
<path d="M81.4435 2.73694V4.92946H80.2141V6.23908H81.4435V8.49046H83.159V2.73694H81.4435Z" fill="white"/>
<path d="M79.6279 4.04656V2.73694H73.4235V3.0901V4.04656V7.54871L74.0954 8.24031H74.6101H75.139H79.6279V6.93069H75.139V4.04656H79.6279Z" fill="white"/>
<path d="M76.3971 13.5376V12.7283H83.159V11.4187H83.1447V10.6388H83.159V9.34387H74.4528V10.6388H81.1147V11.4187H74.4528V11.7718H74.4385V14.1556L75.1104 14.8472H75.6251H76.154H83.3592V13.5376H76.3971Z" fill="white"/>
<path d="M65.5179 4.50266H68.9346V2.75159H61.9297V4.50266H65.3607L61.6437 10.0502L62.959 11.3304L65.4321 7.63694L67.9196 11.3451L69.2491 10.0649L65.5179 4.50266Z" fill="white"/>
<path d="M114.553 2.78107V5.72405H113.609C113.437 4.87613 112.997 4.11054 112.359 3.54637C111.72 2.98219 110.918 2.65106 110.078 2.60449C109.026 2.67644 108.044 3.17269 107.346 3.98545C106.647 4.79822 106.288 5.86187 106.347 6.94539C106.31 7.48749 106.377 8.03178 106.545 8.54712C106.712 9.06246 106.977 9.53875 107.323 9.94874C107.67 10.3587 108.092 10.6944 108.564 10.9365C109.037 11.1787 109.551 11.3225 110.078 11.3599C110.956 11.3147 111.792 10.9615 112.447 10.3591C113.103 9.75675 113.538 8.94148 113.681 8.04901H114.596V14.9061H116.297V2.78107H114.553ZM110.078 9.37335C109.52 9.30332 109.011 9.0087 108.663 8.5538C108.314 8.09891 108.155 7.52069 108.22 6.94539C108.145 6.6597 108.135 6.36015 108.191 6.06993C108.247 5.77972 108.367 5.50663 108.542 5.27182C108.717 5.03701 108.942 4.84678 109.199 4.71586C109.457 4.58493 109.741 4.51683 110.028 4.51683C110.315 4.51683 110.599 4.58493 110.857 4.71586C111.115 4.84678 111.34 5.03701 111.514 5.27182C111.689 5.50663 111.809 5.77972 111.865 6.06993C111.921 6.36015 111.911 6.6597 111.836 6.94539C111.903 7.5052 111.757 8.06987 111.43 8.52204C111.102 8.97422 110.618 9.27911 110.078 9.37335Z" fill="white"/>
<path d="M32.9806 22.1901H31.9798L30.922 19.718L29.9498 20.9688V22.1901H29.0492V17.3195H30.0213V19.8798C30.0973 19.7549 30.1834 19.6368 30.2786 19.5267L31.937 17.3195H32.8519L31.6653 18.9234L32.9806 22.1901Z" fill="white"/>
<path d="M34.8533 21.1012C34.6394 20.6907 34.5405 20.2271 34.5674 19.7621C34.5674 18.5555 34.9534 17.9522 35.7254 17.9522C35.8964 17.9432 36.0666 17.9822 36.2177 18.0652C36.3688 18.1481 36.4951 18.2718 36.5831 18.4231C36.7904 18.8308 36.8891 19.2877 36.869 19.7474C36.928 20.2643 36.8063 20.7859 36.5259 21.2189C36.4221 21.3397 36.2945 21.4364 36.1515 21.5024C36.0085 21.5683 35.8535 21.6021 35.6968 21.6015C35.5256 21.6033 35.357 21.5578 35.2087 21.4698C35.0604 21.3819 34.9376 21.2546 34.8533 21.1012ZM37.255 21.5721C37.6606 21.0581 37.8691 20.4089 37.8412 19.7474C37.8649 19.0979 37.662 18.4611 37.2693 17.9522C37.0852 17.7202 36.8511 17.5356 36.5856 17.413C36.32 17.2904 36.0304 17.2332 35.7397 17.2459C35.4449 17.2342 35.1514 17.2917 34.8814 17.4141C34.6115 17.5365 34.3721 17.7205 34.1814 17.9522C33.776 18.4498 33.5623 19.0835 33.581 19.7327C33.5596 20.384 33.7564 21.023 34.1385 21.5426C34.3256 21.7796 34.564 21.9682 34.8345 22.0934C35.1051 22.2186 35.4004 22.2769 35.6968 22.2637C35.99 22.2739 36.2818 22.2172 36.5512 22.0977C36.8207 21.9781 37.061 21.7986 37.255 21.5721Z" fill="white"/>
<path d="M40.0284 18.0258H41.2149C41.4492 18.0081 41.682 18.0758 41.8726 18.217C41.9498 18.2802 42.0119 18.3609 42.0541 18.4527C42.0962 18.5446 42.1173 18.6452 42.1156 18.7468C42.1173 18.8505 42.0964 18.9533 42.0543 19.0475C42.0123 19.1417 41.9501 19.225 41.8726 19.2912C41.6592 19.443 41.4022 19.5156 41.1435 19.4972H40.0284V18.0258ZM42.1442 20.0417C42.413 19.96 42.6476 19.7882 42.8108 19.5536C42.9739 19.319 43.0563 19.0351 43.0448 18.7468C43.0499 18.5534 43.0141 18.3612 42.9401 18.1834C42.8661 18.0055 42.7555 17.8464 42.6159 17.7167C42.2377 17.4157 41.7625 17.2737 41.2864 17.3194H39.0563V22.1901H40.0284V20.1888H41.2864L42.0727 22.1901H42.8876L42.1442 20.0417Z" fill="white"/>
<path d="M47.4908 22.1901H44.3171V17.3195H47.4622V18.0552H45.1463V19.3648H47.0048V20.0711H45.1463V21.4396H47.4908V22.1901Z" fill="white"/>
<path d="M49.5209 20.336L50.25 18.1582L50.979 20.336H49.5209ZM50.9504 17.3195H49.8497L48.1913 22.1901H48.9633L49.3493 21.0423H51.2793L51.6652 22.1901H52.6374L50.9504 17.3195Z" fill="white"/>
<path d="M56.6974 18.011H57.5551C57.745 18.0035 57.9336 18.0455 58.1035 18.1329C58.2734 18.2204 58.4192 18.3505 58.5272 18.5113C58.7848 18.8562 58.9164 19.2833 58.8989 19.718C58.9323 20.1935 58.7835 20.6636 58.4844 21.0276C58.3515 21.1711 58.1918 21.2854 58.0149 21.3638C57.8381 21.4422 57.6476 21.483 57.4551 21.4838H56.6974V18.011ZM57.4122 22.1901C57.7349 22.2222 58.0606 22.1823 58.3671 22.0733C58.6735 21.9643 58.9536 21.7887 59.1882 21.5583C59.4229 21.328 59.6066 21.0483 59.7269 20.7384C59.8472 20.4284 59.9012 20.0955 59.8853 19.7621C59.8979 19.122 59.673 18.5011 59.2563 18.0258C59.0493 17.7913 58.7947 17.6065 58.5106 17.4844C58.2265 17.3624 57.9199 17.306 57.6123 17.3194H55.7538V22.1901H57.4122Z" fill="white"/>
<path d="M61.9868 22.1901H61.0862V17.3195H61.9868V22.1901Z" fill="white"/>
<path d="M67.262 19.7032V22.19H66.8617L66.5901 21.5278C66.4551 21.7707 66.2557 21.9689 66.0151 22.0992C65.7746 22.2295 65.5029 22.2865 65.232 22.2636C64.9363 22.2813 64.641 22.2217 64.3736 22.0905C64.1062 21.9593 63.8753 21.7607 63.7024 21.5131C63.3689 20.9942 63.1946 20.3842 63.202 19.7621C63.1833 19.1133 63.3856 18.4782 63.7738 17.9668C63.9616 17.7269 64.2021 17.5364 64.4756 17.411C64.749 17.2856 65.0475 17.229 65.3464 17.2458C65.7758 17.2224 66.1992 17.3578 66.5401 17.6277C66.8809 17.8976 67.1167 18.2841 67.2048 18.7173L66.4186 18.8497C66.3799 18.5938 66.2503 18.3617 66.0548 18.1985C65.8594 18.0354 65.612 17.9528 65.3607 17.9668C65.1961 17.9599 65.0323 17.9936 64.8831 18.0653C64.7338 18.137 64.6034 18.2446 64.5029 18.3789C64.2471 18.757 64.126 19.2143 64.1598 19.6738C64.1598 20.9098 64.5601 21.5278 65.3464 21.5278C65.4887 21.5333 65.6307 21.5087 65.7634 21.4556C65.8962 21.4024 66.017 21.3218 66.1184 21.2188C66.2199 21.1095 66.2989 20.9801 66.3505 20.8385C66.4021 20.6969 66.4253 20.5459 66.4186 20.3948H65.375V19.6885L67.262 19.7032Z" fill="white"/>
<path d="M69.5636 22.1901H68.6201V17.3195H69.5208L69.5636 22.1901Z" fill="white"/>
<path d="M72.7802 22.1901H71.8224V18.0699H70.4929V17.3195H74.1097V18.0699H72.7802V22.1901Z" fill="white"/>
<path d="M75.5107 20.336L76.2398 18.1582L76.9689 20.336H75.5107ZM76.9403 17.3195H75.7681L74.1097 22.1901H74.8817L75.282 21.0423H77.1976L77.5979 22.1901H78.6272L76.9403 17.3195Z" fill="white"/>
<path d="M82.6301 22.1901H79.5422V17.3195H80.5V21.3955H82.6301V22.1901Z" fill="white"/>
<path d="M90.8216 22.1901H89.9066V17.9228L88.477 22.1901H88.0053L86.5757 17.9228V22.1901H85.9181V17.3195H87.3477L88.3913 20.4537L89.4206 17.3195H90.8502L90.8216 22.1901Z" fill="white"/>
<path d="M95.5535 22.1901H92.2941V17.3195H95.5106V18.0552H93.1947V19.3648H95.0675V20.0711H93.1947V21.4396H95.5535V22.1901Z" fill="white"/>
<path d="M97.5978 18.011H98.4556C98.6454 18.0035 98.834 18.0455 99.0039 18.1329C99.1739 18.2204 99.3196 18.3505 99.4277 18.5113C99.679 18.8595 99.8098 19.2843 99.7994 19.718C99.8327 20.1935 99.6839 20.6636 99.3848 21.0276C99.2519 21.1711 99.0923 21.2854 98.9154 21.3638C98.7385 21.4422 98.5481 21.483 98.3555 21.4838H97.5978V18.011ZM98.3126 22.1901C98.6353 22.2222 98.961 22.1823 99.2675 22.0733C99.574 21.9643 99.854 21.7887 100.089 21.5583C100.323 21.328 100.507 21.0483 100.627 20.7384C100.748 20.4284 100.802 20.0955 100.786 19.7621C100.798 19.122 100.573 18.5011 100.157 18.0258C99.9497 17.7913 99.6952 17.6065 99.4111 17.4844C99.127 17.3624 98.8203 17.306 98.5128 17.3194H96.6686V22.1901H98.3126Z" fill="white"/>
<path d="M102.93 22.1901H102.03V17.3195H102.93V22.1901Z" fill="white"/>
<path d="M105.232 20.336L105.961 18.1582L106.69 20.336H105.232ZM106.661 17.3195H105.503L103.845 22.1901H104.617L105.003 21.0423H106.933L107.333 22.1901H108.291L106.661 17.3195Z" fill="white"/>
<path d="M115.225 22.1901H114.367V20.0859H112.423V22.1901H111.508V17.3195H112.408V19.3207H114.367V17.3195H115.268L115.225 22.1901Z" fill="white"/>
<path d="M117.598 22.1901H116.697V17.3195H117.598V22.1901Z" fill="white"/>
<path d="M122.944 19.7032V22.19H122.544L122.272 21.5279C122.132 21.7831 121.922 21.9895 121.667 22.1206C121.412 22.2517 121.125 22.3015 120.843 22.2636C120.549 22.2829 120.255 22.224 119.99 22.0926C119.724 21.9612 119.496 21.7616 119.327 21.5131C118.98 21.0005 118.799 20.3872 118.813 19.7621C118.794 19.1133 118.996 18.4782 119.385 17.9668C119.572 17.7269 119.813 17.5364 120.086 17.411C120.36 17.2856 120.658 17.229 120.957 17.2458C121.387 17.2224 121.81 17.3578 122.151 17.6277C122.492 17.8976 122.728 18.2841 122.816 18.7173L122.029 18.8497C121.991 18.5938 121.861 18.3617 121.666 18.1985C121.47 18.0354 121.223 17.9528 120.972 17.9668C120.807 17.9611 120.644 17.9954 120.495 18.067C120.346 18.1386 120.215 18.2455 120.114 18.3789C119.858 18.757 119.737 19.2144 119.771 19.6738C119.771 20.9098 120.171 21.5279 120.957 21.5279C121.1 21.5333 121.242 21.5087 121.374 21.4556C121.507 21.4024 121.628 21.3218 121.729 21.2188C121.831 21.1095 121.91 20.9801 121.961 20.8385C122.013 20.6969 122.036 20.5459 122.029 20.3948H121V19.6885L122.944 19.7032Z" fill="white"/>
<path d="M127.977 22.1901H127.076V20.0859H125.175V22.1901H124.274V17.3195H125.175V19.3207H127.076V17.3195H127.977V22.1901Z" fill="white"/>
<path d="M131.193 21.0129L132.065 20.8363C132.165 21.3219 132.566 21.5573 133.28 21.5573C133.535 21.5725 133.788 21.5111 134.009 21.3808C134.087 21.331 134.152 21.2618 134.197 21.1794C134.242 21.0971 134.266 21.0043 134.267 20.9099C134.264 20.7784 134.224 20.6506 134.152 20.542C134.02 20.3974 133.843 20.3039 133.652 20.2771L132.694 20.0417C132.436 19.988 132.19 19.8884 131.965 19.7474C131.806 19.6362 131.678 19.484 131.593 19.306C131.496 19.1156 131.447 18.903 131.45 18.6879C131.448 18.4875 131.492 18.2894 131.579 18.1101C131.666 17.9308 131.793 17.7758 131.951 17.6579C132.319 17.3811 132.768 17.2411 133.223 17.2606C133.626 17.2517 134.024 17.3479 134.381 17.5402C134.533 17.6167 134.668 17.7239 134.778 17.8554C134.889 17.9869 134.973 18.1399 135.024 18.3053L134.167 18.5261C134.098 18.3405 133.97 18.1843 133.804 18.0828C133.638 17.9813 133.443 17.9405 133.252 17.9669C133.02 17.9519 132.789 18.0137 132.594 18.1435C132.526 18.1904 132.471 18.254 132.434 18.3286C132.396 18.4032 132.378 18.4863 132.38 18.5702C132.38 18.8498 132.608 19.0411 133.08 19.1588L133.924 19.3648C134.322 19.4279 134.689 19.6244 134.967 19.924C135.134 20.1587 135.225 20.4422 135.225 20.7333C135.234 20.9555 135.188 21.1766 135.09 21.375C134.992 21.5735 134.847 21.7427 134.667 21.8663C134.246 22.1595 133.745 22.304 133.237 22.2784C132.785 22.2896 132.338 22.1833 131.937 21.9693C131.753 21.8742 131.592 21.7396 131.464 21.5745C131.335 21.4095 131.243 21.2179 131.193 21.0129Z" fill="white"/>
<path d="M139.17 20.4979L139.999 20.5862C139.965 21.0486 139.76 21.48 139.428 21.7928C139.062 22.114 138.593 22.2821 138.112 22.2637C137.715 22.2797 137.323 22.1608 136.997 21.9252C136.706 21.6894 136.48 21.3802 136.34 21.0276C136.18 20.6211 136.103 20.1856 136.111 19.7474C136.087 19.098 136.278 18.4596 136.654 17.9375C136.989 17.5416 137.458 17.2922 137.966 17.2402C138.473 17.1883 138.981 17.3377 139.385 17.6579C139.732 17.9947 139.951 18.4492 139.999 18.9381L139.17 19.0264C139.013 18.2906 138.67 17.9228 138.155 17.9228C137.996 17.9177 137.839 17.9576 137.7 18.038C137.562 18.1184 137.447 18.2363 137.369 18.3789C137.158 18.7851 137.059 19.2432 137.083 19.7033C137.051 20.1705 137.155 20.637 137.383 21.0423C137.466 21.184 137.584 21.3007 137.724 21.3808C137.865 21.4609 138.023 21.5015 138.184 21.4985C138.311 21.4995 138.436 21.4725 138.552 21.4191C138.668 21.3658 138.772 21.2875 138.856 21.1895C139.033 21.002 139.144 20.7583 139.17 20.4979Z" fill="white"/>
<path d="M144.803 22.1901H143.902V20.0859H141.986V22.1901H141.086V17.3195H141.986V19.3207H143.902V17.3195H144.803V22.1901Z" fill="white"/>
<path d="M147.247 21.1012C147.021 20.6952 146.916 20.2292 146.947 19.7621C146.947 18.5555 147.333 17.9522 148.105 17.9522C148.278 17.9436 148.45 17.9828 148.603 18.0656C148.757 18.1483 148.886 18.2718 148.977 18.4231C149.179 18.8322 149.273 19.289 149.249 19.7474C149.308 20.2643 149.186 20.7859 148.906 21.2189C148.806 21.3409 148.681 21.4386 148.54 21.5047C148.399 21.5709 148.246 21.604 148.091 21.6015C147.919 21.6065 147.749 21.5624 147.6 21.4741C147.451 21.3858 147.329 21.2567 147.247 21.1012ZM149.635 21.5721C150.046 21.0615 150.256 20.4099 150.221 19.7474C150.242 19.1006 150.045 18.4661 149.663 17.9522C149.476 17.7199 149.24 17.5353 148.972 17.4128C148.704 17.2903 148.412 17.2332 148.119 17.2459C147.825 17.2364 147.532 17.2949 147.262 17.4171C146.993 17.5393 146.753 17.7222 146.561 17.9522C146.167 18.4552 145.959 19.0864 145.975 19.7327C145.954 20.384 146.15 21.023 146.533 21.5426C146.717 21.7785 146.953 21.9665 147.221 22.0917C147.49 22.2169 147.782 22.2758 148.077 22.2637C148.377 22.2829 148.678 22.2304 148.956 22.1105C149.233 21.9905 149.48 21.8063 149.678 21.5721H149.635Z" fill="white"/>
<path d="M152.494 21.1012C152.268 20.6952 152.163 20.2292 152.194 19.7621C152.194 18.5555 152.58 17.9522 153.352 17.9522C153.525 17.9436 153.697 17.9828 153.85 18.0656C154.003 18.1483 154.132 18.2718 154.224 18.4231C154.426 18.8322 154.52 19.289 154.495 19.7474C154.554 20.2643 154.433 20.7859 154.152 21.2189C154.051 21.3394 153.926 21.4359 153.786 21.502C153.645 21.568 153.492 21.602 153.337 21.6015C153.166 21.6065 152.996 21.5624 152.847 21.4741C152.698 21.3858 152.576 21.2567 152.494 21.1012ZM154.881 21.5721C155.293 21.0615 155.502 20.4099 155.467 19.7474C155.489 19.1006 155.292 18.4661 154.91 17.9522C154.723 17.7199 154.486 17.5353 154.218 17.4128C153.951 17.2903 153.659 17.2332 153.366 17.2459C153.072 17.2364 152.779 17.2949 152.509 17.4171C152.239 17.5393 152 17.7222 151.808 17.9522C151.413 18.4552 151.205 19.0864 151.222 19.7327C151.2 20.384 151.397 21.023 151.779 21.5426C151.964 21.7785 152.2 21.9665 152.468 22.0917C152.736 22.2169 153.029 22.2758 153.323 22.2637C153.617 22.276 153.909 22.2203 154.179 22.1006C154.449 21.9809 154.689 21.8002 154.881 21.5721Z" fill="white"/>
<path d="M159.756 22.1901H156.683V17.3195H157.626V21.3955H159.756V22.1901Z" fill="white"/>
<path d="M20.8433 13.8761C20.4266 16.0307 19.3062 17.9736 17.6684 19.3821C16.0305 20.7906 13.9737 21.58 11.8398 21.619C9.70587 21.6579 7.6232 20.9443 5.93779 19.5965C4.25239 18.2487 3.06571 16.3479 2.57491 14.21C2.08411 12.072 2.31873 9.82556 3.23978 7.84383C4.16084 5.86209 5.7129 4.26437 7.6381 3.3161C9.5633 2.36783 11.7458 2.1261 13.8229 2.63105C15.9 3.13601 17.7468 4.35727 19.0564 6.09193L17.398 9.24092C16.7933 7.914 15.7717 6.83558 14.4983 6.17977C13.2248 5.52395 11.7738 5.329 10.3795 5.6264C8.98519 5.9238 7.72893 6.69619 6.81353 7.81887C5.89813 8.94155 5.37702 10.349 5.33432 11.814C5.29162 13.279 5.72983 14.7161 6.5782 15.8933C7.42657 17.0704 8.63558 17.9189 10.0101 18.3018C11.3846 18.6847 12.8443 18.5797 14.1537 18.0036C15.463 17.4275 16.5455 16.4141 17.2265 15.1269L20.5145 8.8289L21.9441 6.20965C21.485 5.35476 20.9283 4.55941 20.2858 3.84055C18.5117 1.84336 16.1341 0.521616 13.5387 0.0896458C10.9433 -0.342324 8.28223 0.140816 5.98703 1.46072C3.69182 2.78062 1.89709 4.85988 0.893875 7.36131C-0.109339 9.86274 -0.262203 12.6397 0.460073 15.2417C1.18235 17.8438 2.73741 20.1184 4.87307 21.6967C7.00874 23.2751 9.59976 24.0645 12.226 23.9371C14.8522 23.8097 17.3596 22.7728 19.3415 20.9947C21.3234 19.2166 22.6637 16.8014 23.145 14.141L20.8433 13.8761ZM11.6511 15.7302C10.9329 15.7302 10.2309 15.511 9.63375 15.1003C9.03661 14.6896 8.5712 14.1059 8.29636 13.4229C8.02153 12.74 7.94962 11.9885 8.08973 11.2634C8.22984 10.5384 8.57567 9.87244 9.0835 9.34973C9.59132 8.82702 10.2383 8.47105 10.9427 8.32683C11.6471 8.18262 12.3772 8.25664 13.0407 8.53953C13.7042 8.82241 14.2713 9.30147 14.6703 9.91611C15.0693 10.5308 15.2823 11.2534 15.2823 11.9926C15.2823 12.4834 15.1883 12.9694 15.0058 13.4229C14.8234 13.8764 14.5559 14.2884 14.2187 14.6355C13.8815 14.9825 13.4812 15.2578 13.0407 15.4457C12.6001 15.6335 12.128 15.7302 11.6511 15.7302Z" fill="white"/>
</g>
<defs>
<clipPath id="clip0_694_1109">
<rect width="161" height="24" fill="white"/>
</clipPath>
</defs>
</svg>
