<svg width="200" height="29" viewBox="0 0 200 29" fill="none" xmlns="http://www.w3.org/2000/svg">
<g clip-path="url(#clip0_3_1223)">
<path d="M88.9362 3.3606H86.8229V17.9584H88.9362V3.3606Z" fill="black"/>
<path d="M117.119 3.32495H115.006V17.9405H117.119V3.32495Z" fill="black"/>
<path d="M48.2151 5.88539H46.5103V3.34277H44.397V13.6199H46.5103V8.00127H48.2151V5.88539Z" fill="black"/>
<path d="M43.1539 3.32504H40.1349V2.16931H38.0216V3.32504H35.0204V5.44092H35.9083C35.5327 5.95185 35.2832 6.54458 35.1803 7.1706C35.0774 7.79662 35.124 8.43814 35.3163 9.04267C35.5086 9.64719 35.8411 10.1975 36.2866 10.6487C36.7322 11.0998 37.2781 11.4389 37.8797 11.6382C38.4813 11.8375 39.1215 11.8913 39.7478 11.7953C40.3742 11.6993 40.969 11.4562 41.4835 11.0858C41.998 10.7154 42.4175 10.2283 42.7079 9.6644C42.9982 9.10047 43.1511 8.47573 43.1539 7.84129C43.1554 6.97254 42.868 6.12802 42.337 5.44092H43.1539V3.32504ZM39.0694 9.566C38.7182 9.566 38.3748 9.46172 38.0828 9.26635C37.7907 9.07097 37.5631 8.79328 37.4287 8.46838C37.2943 8.14349 37.2591 7.78598 37.3276 7.44107C37.3962 7.09616 37.5653 6.77934 37.8137 6.53068C38.062 6.28201 38.3785 6.11267 38.7229 6.04407C39.0674 5.97546 39.4245 6.01067 39.749 6.14525C40.0735 6.27982 40.3509 6.50772 40.546 6.80012C40.7411 7.09252 40.8453 7.43629 40.8453 7.78795C40.8453 8.25952 40.6582 8.71177 40.3251 9.04522C39.9921 9.37867 39.5404 9.566 39.0694 9.566Z" fill="black"/>
<path d="M186.681 5.88539H184.994V3.34277H182.863V11.6107H184.994V8.00127H186.681V5.88539Z" fill="black"/>
<path d="M181.619 3.32504H178.618V2.16931H176.487V3.32504H173.486V5.44092H174.392C173.946 6.03819 173.674 6.74795 173.608 7.49077C173.542 8.23359 173.684 8.98016 174.018 9.64694C174.351 10.3137 174.863 10.8744 175.497 11.2662C176.131 11.6581 176.861 11.8656 177.606 11.8656C178.351 11.8656 179.081 11.6581 179.715 11.2662C180.349 10.8744 180.861 10.3137 181.194 9.64694C181.528 8.98016 181.67 8.23359 181.604 7.49077C181.538 6.74795 181.266 6.03819 180.82 5.44092H181.619V3.32504ZM177.588 9.566C177.237 9.566 176.894 9.46172 176.602 9.26635C176.31 9.07097 176.082 8.79328 175.948 8.46838C175.813 8.14348 175.778 7.78598 175.846 7.44107C175.915 7.09616 176.084 6.77934 176.333 6.53068C176.581 6.28201 176.897 6.11267 177.242 6.04406C177.586 5.97546 177.943 6.01067 178.268 6.14525C178.592 6.27982 178.87 6.50772 179.065 6.80012C179.26 7.09252 179.364 7.43629 179.364 7.78795C179.364 8.25952 179.177 8.71177 178.844 9.04522C178.511 9.37867 178.059 9.566 177.588 9.566Z" fill="black"/>
<path d="M37.6487 15.8247V13.1221H35.5354V17.1049L36.3701 17.9406H36.9916H37.6487H46.7767V15.8247H37.6487Z" fill="black"/>
<path d="M61.8362 10.9351V8.80143H60.6464V4.14293L59.8117 3.30725H59.1724H58.5153H49.92V5.44091H58.5153V8.80143H48.9966V10.9351H54.3953V12.5887H49.92V14.7046H58.5153V17.9939H60.6464V13.4244L59.8117 12.5887H59.1724H58.5153H56.5086V10.9351H61.8362Z" fill="black"/>
<path d="M182.88 14.9535V18.0473H185.012V13.6555L184.177 12.8198H183.538H182.88H174.054V14.9535H182.88Z" fill="black"/>
<path d="M72.8467 3.36051V11.2195H65.6721V5.44083H71.3904V3.32495H63.541V5.04966V12.4997L64.3757 13.3354H64.9972H65.6721H72.8467V17.9405H74.9777V3.36051H72.8467Z" fill="black"/>
<path d="M157.237 13.1932V4.14293L156.402 3.30725H155.78H155.123H146.51V5.44091H155.123V13.1932H151.483V9.01479H149.352V13.1932H146.066V15.3091H158.444V13.1932H157.237Z" fill="black"/>
<path d="M198.828 13.1576V4.14293L197.993 3.30725H197.372H196.715H188.226V5.44091H196.715V13.1576H194.992V9.54821H192.879V13.1576H191.334V9.54821H189.203V13.1576H187.675V15.2735H200V13.1576H198.828Z" fill="black"/>
<path d="M128.556 3.36059V11.2196H121.364V5.44091H126.727V3.30725H119.25V5.04974V12.4998L120.085 13.3355H120.707H121.364H128.556V17.9406H130.669V3.36059H128.556Z" fill="black"/>
<path d="M172.261 10.0815H159.403V12.1974H162.955C162.472 12.8714 162.211 13.6794 162.209 14.5089C162.276 15.4985 162.716 16.4257 163.439 17.103C164.163 17.7803 165.117 18.157 166.107 18.157C167.098 18.157 168.051 17.7803 168.775 17.103C169.499 16.4257 169.938 15.4985 170.005 14.5089C170.003 13.6794 169.742 12.8714 169.259 12.1974H172.261V10.0815ZM166.063 16.1803C165.733 16.1803 165.41 16.0822 165.135 15.8986C164.861 15.7149 164.647 15.4539 164.521 15.1485C164.394 14.8431 164.361 14.507 164.425 14.1828C164.49 13.8586 164.649 13.5608 164.882 13.3271C165.116 13.0933 165.413 12.9341 165.737 12.8696C166.061 12.8051 166.397 12.8382 166.702 12.9647C167.007 13.0912 167.267 13.3055 167.451 13.5803C167.634 13.8552 167.732 14.1783 167.732 14.5089C167.732 14.9522 167.556 15.3773 167.243 15.6907C166.93 16.0042 166.505 16.1803 166.063 16.1803Z" fill="black"/>
<path d="M161.96 8.99701H162.618H171.231V7.1834H162.618V5.29867H171.195V3.30725H160.54V3.59174H160.504V8.16133L161.339 8.99701H161.96Z" fill="black"/>
<path d="M111.561 3.32495H105.416V12.4463L106.251 13.282H113.106V3.32495H111.561ZM110.993 11.2195H107.441V5.44083H110.993V11.2195Z" fill="black"/>
<path d="M98.3839 5.95654H94.2461V7.53901H98.3839V5.95654Z" fill="black"/>
<path d="M101.172 3.30725V5.95655H99.6448V7.53901H101.172V10.2594H103.303V3.30725H101.172Z" fill="black"/>
<path d="M98.9167 4.88972V3.30725H91.2094V3.73398V4.88972V9.12148L92.044 9.95716H92.6833H93.3404H98.9167V8.37469H93.3404V4.88972H98.9167Z" fill="black"/>
<path d="M94.9032 16.3581V15.3802H103.303V13.7977H103.285V12.8553H103.303V11.2906H92.488V12.8553H100.764V13.7977H92.488V14.2244H92.4702V17.1049L93.3049 17.9406H93.9442H94.6013H103.552V16.3581H94.9032Z" fill="black"/>
<path d="M81.3887 5.44083H85.6331V3.32495H76.9312V5.44083H81.1934L76.576 12.1441L78.2099 13.691L81.2821 9.22808L84.3722 13.7088L86.0238 12.1619L81.3887 5.44083Z" fill="black"/>
<path d="M142.301 3.36058V6.91668H141.129C140.916 5.89212 140.37 4.96703 139.576 4.28531C138.783 3.6036 137.787 3.20349 136.743 3.14722C135.436 3.23416 134.216 3.83379 133.349 4.81588C132.481 5.79797 132.035 7.08321 132.108 8.39247C132.062 9.04751 132.146 9.70519 132.354 10.3279C132.562 10.9506 132.891 11.5261 133.321 12.0215C133.752 12.5169 134.275 12.9225 134.863 13.2151C135.45 13.5077 136.089 13.6815 136.743 13.7266C137.833 13.672 138.872 13.2453 139.686 12.5174C140.5 11.7895 141.041 10.8044 141.218 9.726H142.355V18.0117H144.468V3.36058H142.301ZM136.743 11.3262C136.049 11.2416 135.417 10.8856 134.984 10.336C134.552 9.7863 134.354 9.08762 134.434 8.39247C134.342 8.04726 134.329 7.6853 134.399 7.33463C134.468 6.98395 134.617 6.65397 134.834 6.37024C135.052 6.08651 135.331 5.85665 135.651 5.69845C135.972 5.54025 136.324 5.45796 136.681 5.45796C137.038 5.45796 137.39 5.54025 137.71 5.69845C138.031 5.85665 138.31 6.08651 138.527 6.37024C138.744 6.65397 138.894 6.98395 138.963 7.33463C139.032 7.6853 139.02 8.04726 138.927 8.39247C139.01 9.0689 138.829 9.75122 138.422 10.2976C138.016 10.844 137.414 11.2124 136.743 11.3262Z" fill="black"/>
<path d="M40.9696 26.8131H39.7265L38.4123 23.826L37.2047 25.3373V26.8131H36.0859V20.9277H37.2935V24.0215C37.388 23.8706 37.4949 23.7278 37.6132 23.5948L39.6732 20.9277H40.8098L39.3358 22.8658L40.9696 26.8131Z" fill="black"/>
<path d="M43.296 25.4973C43.0303 25.0012 42.9073 24.4411 42.9408 23.8792C42.9408 22.4212 43.4203 21.6922 44.3793 21.6922C44.5917 21.6813 44.8032 21.7285 44.9909 21.8287C45.1786 21.929 45.3355 22.0785 45.4448 22.2612C45.7023 22.7538 45.8249 23.306 45.8 23.8614C45.8732 24.486 45.7221 25.1162 45.3738 25.6395C45.2449 25.7855 45.0863 25.9023 44.9086 25.982C44.731 26.0617 44.5384 26.1026 44.3438 26.1018C44.1311 26.104 43.9217 26.0491 43.7375 25.9427C43.5532 25.8364 43.4007 25.6826 43.296 25.4973ZM46.2795 26.0662C46.7833 25.4452 47.0423 24.6608 47.0076 23.8614C47.037 23.0767 46.7851 22.3072 46.2972 21.6922C46.0685 21.4119 45.7777 21.1889 45.4479 21.0407C45.118 20.8926 44.7582 20.8234 44.397 20.8388C44.0309 20.8247 43.6663 20.8942 43.3309 21.0421C42.9955 21.1899 42.6982 21.4123 42.4613 21.6922C41.9577 22.2936 41.6922 23.0592 41.7155 23.8437C41.6889 24.6306 41.9334 25.4028 42.4081 26.0307C42.6405 26.317 42.9366 26.5449 43.2727 26.6962C43.6088 26.8475 43.9756 26.918 44.3438 26.9019C44.708 26.9143 45.0705 26.8458 45.4052 26.7014C45.7399 26.5569 46.0385 26.34 46.2795 26.0662Z" fill="black"/>
<path d="M49.7247 21.7812H51.1987C51.4896 21.7599 51.7788 21.8417 52.0156 22.0124C52.1116 22.0887 52.1887 22.1862 52.2411 22.2972C52.2934 22.4082 52.3196 22.5297 52.3175 22.6525C52.3196 22.7778 52.2936 22.902 52.2414 23.0158C52.1891 23.1297 52.112 23.2304 52.0156 23.3103C51.7506 23.4937 51.4312 23.5815 51.1099 23.5593H49.7247V21.7812ZM52.353 24.2171C52.6869 24.1184 52.9784 23.9108 53.181 23.6274C53.3837 23.3439 53.4861 23.0008 53.4718 22.6525C53.4781 22.4188 53.4337 22.1865 53.3417 21.9717C53.2497 21.7568 53.1124 21.5644 52.939 21.4078C52.4691 21.0441 51.8789 20.8725 51.2875 20.9278H48.5171V26.8131H49.7247V24.395H51.2875L52.2642 26.8131H53.2765L52.353 24.2171Z" fill="black"/>
<path d="M58.9948 26.8131H55.0524V20.9277H58.9593V21.8168H56.0824V23.3992H58.391V24.2527H56.0824V25.9063H58.9948V26.8131Z" fill="black"/>
<path d="M61.5166 24.5727L62.4223 21.9412L63.328 24.5727H61.5166ZM63.2924 20.9277H61.925L59.865 26.8131H60.824L61.3035 25.4262H63.7009L64.1804 26.8131H65.388L63.2924 20.9277Z" fill="black"/>
<path d="M70.4315 21.7634H71.497C71.7328 21.7544 71.9671 21.805 72.1782 21.9107C72.3893 22.0164 72.5704 22.1736 72.7046 22.368C73.0246 22.7847 73.188 23.3008 73.1663 23.826C73.2078 24.4006 73.0229 24.9686 72.6513 25.4084C72.4863 25.5818 72.2879 25.72 72.0682 25.8147C71.8485 25.9094 71.6119 25.9587 71.3727 25.9596H70.4315V21.7634ZM71.3194 26.8131C71.7204 26.8519 72.1249 26.8038 72.5056 26.672C72.8863 26.5403 73.2343 26.3281 73.5257 26.0497C73.8172 25.7714 74.0454 25.4335 74.1948 25.059C74.3443 24.6845 74.4114 24.2821 74.3917 23.8793C74.4073 23.1059 74.1279 22.3556 73.6103 21.7812C73.3531 21.4979 73.0369 21.2746 72.684 21.1271C72.3311 20.9796 71.9501 20.9116 71.568 20.9278H69.2594V26.8131H71.3194Z" fill="black"/>
<path d="M77.0022 26.8131H75.8834V20.9277H77.0022V26.8131Z" fill="black"/>
<path d="M83.5552 23.8082V26.8131H83.058L82.7206 26.0129C82.5529 26.3064 82.3051 26.5459 82.0063 26.7033C81.7075 26.8608 81.37 26.9297 81.0335 26.902C80.6661 26.9233 80.2993 26.8514 79.9671 26.6929C79.6349 26.5343 79.3481 26.2943 79.1333 25.9952C78.7191 25.3682 78.5025 24.631 78.5117 23.8793C78.4885 23.0954 78.7398 22.328 79.2221 21.7101C79.4554 21.4201 79.7541 21.1899 80.0938 21.0384C80.4335 20.8869 80.8043 20.8185 81.1756 20.8388C81.709 20.8105 82.235 20.9742 82.6584 21.3003C83.0818 21.6264 83.3747 22.0934 83.4842 22.6169L82.5075 22.7769C82.4595 22.4676 82.2985 22.1872 82.0556 21.99C81.8128 21.7929 81.5055 21.6931 81.1933 21.7101C80.9889 21.7016 80.7854 21.7425 80.6 21.8291C80.4146 21.9157 80.2527 22.0456 80.1278 22.2079C79.8101 22.6648 79.6595 23.2175 79.7016 23.7726C79.7016 25.2662 80.1988 26.0129 81.1756 26.0129C81.3524 26.0195 81.5287 25.9898 81.6936 25.9256C81.8586 25.8614 82.0086 25.764 82.1345 25.6396C82.2607 25.5075 82.3588 25.3511 82.4229 25.18C82.4871 25.0088 82.5158 24.8264 82.5075 24.6438H81.2111V23.7904L83.5552 23.8082Z" fill="black"/>
<path d="M86.4144 26.8131H85.2423V20.9277H86.3611L86.4144 26.8131Z" fill="black"/>
<path d="M90.4101 26.8131H89.2203V21.8345H87.5687V20.9277H92.0617V21.8345H90.4101V26.8131Z" fill="black"/>
<path d="M93.8021 24.5727L94.7078 21.9412L95.6135 24.5727H93.8021ZM95.578 20.9277H94.1218L92.0618 26.8131H93.0207L93.518 25.4262H95.8977L96.3949 26.8131H97.6736L95.578 20.9277Z" fill="black"/>
<path d="M102.646 26.8131H98.8101V20.9277H99.9999V25.8529H102.646V26.8131Z" fill="black"/>
<path d="M112.822 26.8131H111.685V21.6567L109.909 26.8131H109.323L107.547 21.6567V26.8131H106.73V20.9277H108.506L109.803 24.715L111.081 20.9277H112.857L112.822 26.8131Z" fill="black"/>
<path d="M118.7 26.8131H114.651V20.9277H118.647V21.8168H115.77V23.3992H118.096V24.2527H115.77V25.9063H118.7V26.8131Z" fill="black"/>
<path d="M121.24 21.7634H122.305C122.541 21.7544 122.775 21.805 122.986 21.9107C123.197 22.0164 123.378 22.1736 123.513 22.368C123.825 22.7887 123.987 23.302 123.974 23.826C124.016 24.4006 123.831 24.9686 123.459 25.4084C123.294 25.5818 123.096 25.72 122.876 25.8147C122.657 25.9094 122.42 25.9587 122.181 25.9596H121.24V21.7634ZM122.127 26.8131C122.528 26.8519 122.933 26.8038 123.314 26.672C123.694 26.5403 124.042 26.3281 124.334 26.0497C124.625 25.7714 124.853 25.4335 125.003 25.059C125.152 24.6845 125.219 24.2821 125.2 23.8793C125.215 23.1059 124.936 22.3556 124.418 21.7812C124.161 21.4979 123.845 21.2746 123.492 21.1271C123.139 20.9796 122.758 20.9116 122.376 20.9278H120.085V26.8131H122.127Z" fill="black"/>
<path d="M127.864 26.8131H126.745V20.9277H127.864V26.8131Z" fill="black"/>
<path d="M130.723 24.5727L131.628 21.9412L132.534 24.5727H130.723ZM132.499 20.9277H131.06L129 26.8131H129.959L130.439 25.4262H132.836L133.333 26.8131H134.523L132.499 20.9277Z" fill="black"/>
<path d="M143.136 26.8131H142.071V24.2705H139.655V26.8131H138.519V20.9277H139.638V23.3459H142.071V20.9277H143.189L143.136 26.8131Z" fill="black"/>
<path d="M146.084 26.8131H144.965V20.9277H146.084V26.8131Z" fill="black"/>
<path d="M152.726 23.8082V26.8131H152.229L151.891 26.0129C151.717 26.3214 151.455 26.5708 151.139 26.7292C150.823 26.8876 150.466 26.9477 150.115 26.902C149.75 26.9253 149.385 26.8542 149.056 26.6953C148.726 26.5365 148.443 26.2954 148.233 25.9952C147.801 25.3758 147.577 24.6347 147.594 23.8793C147.57 23.0954 147.822 22.328 148.304 21.7101C148.537 21.4201 148.836 21.1899 149.176 21.0384C149.515 20.8869 149.886 20.8185 150.257 20.8388C150.791 20.8105 151.317 20.9742 151.74 21.3003C152.164 21.6264 152.457 22.0934 152.566 22.6169L151.589 22.7769C151.541 22.4676 151.38 22.1872 151.138 21.99C150.895 21.7929 150.587 21.6931 150.275 21.7101C150.071 21.7031 149.868 21.7446 149.683 21.8311C149.498 21.9176 149.336 22.0467 149.21 22.2079C148.892 22.6648 148.741 23.2175 148.783 23.7726C148.783 25.2662 149.281 26.0129 150.257 26.0129C150.434 26.0195 150.611 25.9898 150.776 25.9256C150.94 25.8614 151.091 25.764 151.216 25.6396C151.343 25.5075 151.441 25.3511 151.505 25.18C151.569 25.0088 151.598 24.8264 151.589 24.6438H150.311V23.7904L152.726 23.8082Z" fill="black"/>
<path d="M158.977 26.8131H157.858V24.2705H155.496V26.8131H154.377V20.9277H155.496V23.3459H157.858V20.9277H158.977V26.8131Z" fill="black"/>
<path d="M162.973 25.3906L164.056 25.1772C164.18 25.764 164.678 26.0484 165.566 26.0484C165.882 26.0667 166.196 25.9926 166.471 25.8351C166.568 25.775 166.648 25.6913 166.704 25.5918C166.76 25.4923 166.79 25.3803 166.791 25.2661C166.788 25.1073 166.738 24.9528 166.649 24.8216C166.484 24.6468 166.265 24.5339 166.027 24.5015L164.837 24.2171C164.517 24.1522 164.211 24.0319 163.932 23.8614C163.734 23.7271 163.575 23.5432 163.47 23.328C163.349 23.098 163.288 22.8412 163.292 22.5812C163.289 22.3391 163.343 22.0996 163.452 21.883C163.56 21.6664 163.718 21.479 163.914 21.3366C164.371 21.0022 164.929 20.833 165.495 20.8565C165.995 20.8458 166.49 20.9621 166.933 21.1944C167.121 21.2869 167.289 21.4164 167.427 21.5753C167.564 21.7341 167.668 21.919 167.732 22.119L166.667 22.3857C166.581 22.1614 166.422 21.9727 166.216 21.8501C166.009 21.7274 165.768 21.6781 165.53 21.71C165.242 21.6918 164.956 21.7666 164.713 21.9234C164.629 21.98 164.561 22.057 164.514 22.1471C164.468 22.2372 164.444 22.3376 164.447 22.439C164.447 22.7768 164.731 23.008 165.317 23.1502L166.365 23.3991C166.859 23.4753 167.315 23.7128 167.661 24.0748C167.869 24.3585 167.981 24.701 167.981 25.0527C167.993 25.3213 167.935 25.5883 167.814 25.8281C167.692 26.0679 167.511 26.2724 167.288 26.4218C166.766 26.776 166.142 26.9507 165.512 26.9197C164.951 26.9333 164.395 26.8049 163.896 26.5463C163.668 26.4314 163.468 26.2686 163.309 26.0692C163.149 25.8698 163.035 25.6383 162.973 25.3906Z" fill="black"/>
<path d="M172.882 24.7683L173.912 24.8749C173.869 25.4337 173.615 25.955 173.202 26.3329C172.748 26.7211 172.165 26.9242 171.568 26.9019C171.074 26.9213 170.587 26.7776 170.183 26.493C169.822 26.2081 169.54 25.8344 169.366 25.4084C169.168 24.9172 169.071 24.391 169.082 23.8614C169.052 23.0768 169.29 22.3053 169.757 21.6744C170.173 21.1961 170.755 20.8947 171.386 20.8319C172.016 20.7691 172.647 20.9497 173.149 21.3366C173.58 21.7437 173.852 22.2928 173.912 22.8835L172.882 22.9902C172.687 22.1012 172.261 21.6567 171.621 21.6567C171.424 21.6506 171.228 21.6987 171.056 21.7959C170.884 21.8931 170.742 22.0355 170.645 22.2079C170.382 22.6987 170.259 23.2522 170.289 23.8081C170.249 24.3727 170.379 24.9363 170.662 25.4261C170.765 25.5973 170.911 25.7384 171.086 25.8351C171.26 25.9319 171.457 25.9809 171.657 25.9773C171.815 25.9786 171.971 25.9459 172.115 25.8815C172.259 25.817 172.387 25.7224 172.491 25.6039C172.712 25.3774 172.85 25.0829 172.882 24.7683Z" fill="black"/>
<path d="M179.879 26.8131H178.76V24.2705H176.381V26.8131H175.262V20.9277H176.381V23.3459H178.76V20.9277H179.879V26.8131Z" fill="black"/>
<path d="M182.916 25.4973C182.635 25.0067 182.505 24.4436 182.543 23.8792C182.543 22.4212 183.023 21.6922 183.982 21.6922C184.196 21.6819 184.41 21.7292 184.6 21.8292C184.791 21.9293 184.951 22.0784 185.065 22.2612C185.316 22.7555 185.433 23.3076 185.402 23.8615C185.475 24.486 185.324 25.1163 184.976 25.6395C184.852 25.787 184.697 25.9049 184.522 25.9849C184.347 26.0649 184.156 26.1048 183.964 26.1018C183.75 26.1079 183.539 26.0546 183.354 25.9479C183.169 25.8412 183.018 25.6852 182.916 25.4973ZM185.882 26.0662C186.393 25.4494 186.653 24.662 186.61 23.8615C186.637 23.0799 186.392 22.3133 185.917 21.6922C185.685 21.4116 185.391 21.1885 185.058 21.0405C184.725 20.8924 184.363 20.8234 183.999 20.8388C183.633 20.8273 183.27 20.898 182.935 21.0457C182.6 21.1934 182.302 21.4143 182.064 21.6922C181.573 22.3001 181.315 23.0627 181.335 23.8437C181.309 24.6306 181.553 25.4028 182.028 26.0307C182.258 26.3156 182.551 26.5428 182.884 26.6941C183.217 26.8454 183.581 26.9166 183.946 26.9019C184.319 26.9251 184.693 26.8618 185.038 26.7168C185.383 26.5719 185.69 26.3493 185.935 26.0662H185.882Z" fill="black"/>
<path d="M189.433 25.4973C189.152 25.0067 189.022 24.4436 189.061 23.8792C189.061 22.4212 189.54 21.6922 190.499 21.6922C190.714 21.6819 190.927 21.7292 191.118 21.8292C191.308 21.9293 191.469 22.0784 191.582 22.2612C191.834 22.7555 191.95 23.3076 191.92 23.8615C191.993 24.486 191.842 25.1163 191.493 25.6395C191.368 25.7851 191.213 25.9018 191.038 25.9815C190.863 26.0613 190.673 26.1024 190.481 26.1018C190.268 26.1079 190.057 26.0546 189.872 25.9479C189.687 25.8412 189.535 25.6852 189.433 25.4973ZM192.399 26.0662C192.911 25.4494 193.171 24.662 193.127 23.8615C193.154 23.0799 192.909 22.3133 192.435 21.6922C192.202 21.4116 191.908 21.1885 191.576 21.0405C191.243 20.8924 190.881 20.8234 190.517 20.8388C190.151 20.8273 189.787 20.898 189.452 21.0457C189.117 21.1934 188.82 21.4143 188.581 21.6922C188.091 22.3001 187.833 23.0627 187.853 23.8437C187.826 24.6306 188.071 25.4028 188.546 26.0307C188.775 26.3156 189.068 26.5428 189.401 26.6941C189.734 26.8454 190.098 26.9166 190.463 26.9019C190.828 26.9169 191.191 26.8495 191.526 26.7049C191.861 26.5602 192.16 26.342 192.399 26.0662Z" fill="black"/>
<path d="M198.455 26.8131H194.637V20.9277H195.809V25.8529H198.455V26.8131Z" fill="black"/>
<path d="M25.8923 16.7671C25.3746 19.3705 23.9828 21.7182 21.9482 23.4201C19.9136 25.1221 17.3587 26.0759 14.7078 26.123C12.0569 26.1701 9.46977 25.3078 7.37611 23.6792C5.28244 22.0506 3.8083 19.7538 3.19861 17.1705C2.58892 14.5871 2.88037 11.8726 4.02454 9.47805C5.16871 7.08346 7.09673 5.15288 9.48829 4.00705C11.8798 2.86123 14.591 2.56913 17.1712 3.17929C19.7515 3.78944 22.0456 5.26513 23.6725 7.36118L21.6124 11.1662C20.8612 9.56284 19.5922 8.25976 18.0102 7.46731C16.4283 6.67487 14.6258 6.43931 12.8938 6.79867C11.1617 7.15802 9.60112 8.09132 8.46398 9.44789C7.32684 10.8045 6.6795 12.5051 6.62645 14.2754C6.57341 16.0456 7.11777 17.7821 8.17164 19.2045C9.22551 20.6268 10.7274 21.6521 12.4348 22.1148C14.1423 22.5775 15.9556 22.4505 17.5821 21.7544C19.2087 21.0584 20.5534 19.8338 21.3993 18.2784L25.4839 10.6683L27.2598 7.50342C26.6895 6.47043 25.9979 5.50939 25.1997 4.64076C22.9958 2.2275 20.0424 0.630382 16.8183 0.108419C13.5941 -0.413545 10.2885 0.17025 7.43727 1.76513C4.58608 3.36001 2.3566 5.87245 1.11037 8.89502C-0.13586 11.9176 -0.325753 15.273 0.571485 18.4172C1.46872 21.5613 3.40047 24.3098 6.05347 26.217C8.70647 28.1241 11.9251 29.0781 15.1875 28.9241C18.4499 28.7701 21.5646 27.5172 24.0267 25.3687C26.4887 23.2201 28.1537 20.3018 28.7515 17.0871L25.8923 16.7671ZM14.4734 19.0074C13.5812 19.0074 12.7091 18.7425 11.9674 18.2463C11.2256 17.75 10.6474 17.0447 10.306 16.2194C9.9646 15.3942 9.87527 14.4861 10.0493 13.6101C10.2234 12.734 10.653 11.9293 11.2838 11.2977C11.9146 10.6661 12.7184 10.2359 13.5934 10.0617C14.4684 9.88743 15.3753 9.97686 16.1996 10.3187C17.0238 10.6605 17.7283 11.2394 18.2239 11.9821C18.7196 12.7248 18.9841 13.5979 18.9841 14.4912C18.9841 15.0842 18.8675 15.6715 18.6408 16.2194C18.4141 16.7674 18.0818 17.2653 17.663 17.6846C17.2441 18.104 16.7468 18.4367 16.1996 18.6636C15.6523 18.8906 15.0657 19.0074 14.4734 19.0074Z" fill="black"/>
</g>
<defs>
<clipPath id="clip0_3_1223">
<rect width="200" height="29" fill="white"/>
</clipPath>
</defs>
</svg>
