<svg width="18" height="18" viewBox="0 0 18 18" fill="none" xmlns="http://www.w3.org/2000/svg">
<path d="M9.00002 0.666626C4.40502 0.666626 0.666687 4.40496 0.666687 8.99996C0.666687 13.595 4.40502 17.3333 9.00002 17.3333C13.595 17.3333 17.3334 13.595 17.3334 8.99996C17.3334 4.40496 13.595 0.666626 9.00002 0.666626ZM8.37502 5.04163C8.37502 4.69621 8.6546 4.41663 9.00002 4.41663C9.34544 4.41663 9.62502 4.69621 9.62502 5.04163V10.0416C9.62502 10.387 9.34544 10.6666 9.00002 10.6666C8.6546 10.6666 8.37502 10.387 8.37502 10.0416V5.04163ZM9.00002 13.5833C8.5396 13.5833 8.16669 13.2104 8.16669 12.75C8.16669 12.2895 8.5396 11.9166 9.00002 11.9166C9.46044 11.9166 9.83335 12.2895 9.83335 12.75C9.83335 13.2104 9.46044 13.5833 9.00002 13.5833Z" fill="#B1B8C1"/>
</svg>
