<svg width="24" height="24" viewBox="0 0 24 24" fill="none" xmlns="http://www.w3.org/2000/svg">
<path d="M3.75 2.5C2.5095 2.5 1.5 3.5095 1.5 4.75V5.25C1.5 5.9395 2.0605 6.5 2.75 6.5H4.5H13.25C13.9395 6.5 14.5 5.9395 14.5 5.25V4C14.5 3.435 14.6952 2.919 15.0127 2.5H3.75ZM16.9932 2.50098C16.1692 2.50498 15.5 3.175 15.5 4V5.25C15.5 6.4905 14.4905 7.5 13.25 7.5H4.5V18.25C4.5 20.042 5.958 21.5 7.75 21.5H19.0127C18.6952 21.081 18.5 20.565 18.5 20V4.83496C18.5 4.53996 18.4995 4.25523 18.499 3.99023C18.4935 3.17023 17.8273 2.50498 17.0068 2.50098H16.9932ZM8.25 9.5H14.75C15.164 9.5 15.5 9.836 15.5 10.25C15.5 10.664 15.164 11 14.75 11H8.25C7.836 11 7.5 10.664 7.5 10.25C7.5 9.836 7.836 9.5 8.25 9.5ZM8.25 13H14.75C15.164 13 15.5 13.336 15.5 13.75C15.5 14.164 15.164 14.5 14.75 14.5H8.25C7.836 14.5 7.5 14.164 7.5 13.75C7.5 13.336 7.836 13 8.25 13ZM8.25 16.5H14.75C15.164 16.5 15.5 16.836 15.5 17.25C15.5 17.664 15.164 18 14.75 18H8.25C7.836 18 7.5 17.664 7.5 17.25C7.5 16.836 7.836 16.5 8.25 16.5ZM19.5 17V20C19.5 20.827 20.173 21.5 21 21.5C21.827 21.5 22.5 20.827 22.5 20V18.25C22.5 17.5605 21.9395 17 21.25 17H19.5Z" fill="#505966"/>
</svg>
