<svg width="55" height="55" viewBox="0 0 55 55" fill="none" xmlns="http://www.w3.org/2000/svg">
<path opacity="0.35" d="M49.2708 9.16675H5.72913C3.83065 9.16675 2.29163 10.7058 2.29163 12.6042C2.29163 14.5027 3.83065 16.0417 5.72913 16.0417H49.2708C51.1693 16.0417 52.7083 14.5027 52.7083 12.6042C52.7083 10.7058 51.1693 9.16675 49.2708 9.16675Z" fill="#D2D6DB"/>
<path d="M6.875 16.0417H13.75V42.3959C13.75 43.3076 13.3878 44.1819 12.7432 44.8266C12.0985 45.4712 11.2242 45.8334 10.3125 45.8334C9.40082 45.8334 8.52648 45.4712 7.88182 44.8266C7.23716 44.1819 6.875 43.3076 6.875 42.3959V16.0417Z" fill="#D2D6DB"/>
<path d="M41.25 16.0417H48.125V42.3959C48.125 43.3076 47.7628 44.1819 47.1182 44.8266C46.4735 45.4712 45.5992 45.8334 44.6875 45.8334C43.7758 45.8334 42.9015 45.4712 42.2568 44.8266C41.6122 44.1819 41.25 43.3076 41.25 42.3959V16.0417Z" fill="#D2D6DB"/>
<path d="M43.5417 22.9167H11.4584V29.7917H43.5417V22.9167Z" fill="#D2D6DB"/>
</svg>
