<svg width="55" height="55" viewBox="0 0 55 55" fill="none" xmlns="http://www.w3.org/2000/svg">
<path opacity="0.35" d="M45.8333 36.6667V43.5417L41.2935 45.8334H13.7133L9.16663 43.5417V36.6667L12.2604 34.3751C13.5208 31.6709 16.2937 29.7917 19.4791 29.7917H35.5208C38.7062 29.7917 41.4791 31.6709 42.7395 34.3751L45.8333 36.6667Z" fill="#D2D6DB"/>
<path d="M19.4791 45.8333H8.02079C4.85829 45.8333 2.29163 43.2667 2.29163 40.1042C2.29163 36.9417 4.85829 34.375 8.02079 34.375H12.2604C11.7333 35.4062 11.4583 36.575 11.4583 37.8125C11.4583 42.2354 15.0562 45.8333 19.4791 45.8333Z" fill="#D2D6DB"/>
<path d="M52.7084 40.1042C52.7084 43.2667 50.1417 45.8333 46.9792 45.8333H35.5209C39.9438 45.8333 43.5417 42.2354 43.5417 37.8125C43.5417 36.575 43.2667 35.4062 42.7396 34.375H46.9792C50.1417 34.375 52.7084 36.9417 52.7084 40.1042Z" fill="#D2D6DB"/>
<path opacity="0.35" d="M27.5 25.2083C32.5627 25.2083 36.6667 21.1043 36.6667 16.0417C36.6667 10.9791 32.5627 6.875 27.5 6.875C22.4374 6.875 18.3334 10.9791 18.3334 16.0417C18.3334 21.1043 22.4374 25.2083 27.5 25.2083Z" fill="#D2D6DB"/>
<path opacity="0.35" d="M45.8334 27.5C49.6303 27.5 52.7084 24.422 52.7084 20.625C52.7084 16.828 49.6303 13.75 45.8334 13.75C42.0364 13.75 38.9584 16.828 38.9584 20.625C38.9584 24.422 42.0364 27.5 45.8334 27.5Z" fill="#D2D6DB"/>
<path opacity="0.35" d="M9.16663 27.5C12.9636 27.5 16.0416 24.422 16.0416 20.625C16.0416 16.828 12.9636 13.75 9.16663 13.75C5.36967 13.75 2.29163 16.828 2.29163 20.625C2.29163 24.422 5.36967 27.5 9.16663 27.5Z" fill="#D2D6DB"/>
</svg>
